#!OML:ASF E:/inclinewalkrobotboard/Project1/Captureday1/Session1/subject1.ASF
:FULLY-SPECIFIED
:DEGREES
88
root 0 0 0 -3.5271078301251224 -5.710470763876167 -2.097881205283276
lowerback 9.856279795459024 1.9471512170378897 1.6980300332895304
upperback -0.036640581840749725 2.843602317322638 0.970120010145267
thorax -5.517054582464613 1.3803348831981086 -0.3402015761679029
lowerneck -16.562759423864122 -3.014147538392267 -1.6533713736594757
upperneck 21.272957640101943 -3.9144544426367442 0.7412914119548188
head 9.498112602808394 -1.8568054973082948 0.004572018724843252
rclavicle -3.954130803042157E-15 -2.2197751975304146E-15
rhumerus -32.77940360215866 -20.63678058983698 -78.99515959805045
rradius 21.074307313022736
rwrist 6.238277546131331
rhand -18.078544998666125 26.087420250611515
rfingers 7.1250200000000214
rthumb 8.19022152115616 -3.730505122648502
lclavicle -4.369940694935096E-15 -2.745843817331964E-15
lhumerus -39.037116750484216 8.585927790044233 79.68928293329193
lradius 21.187365881655463
lwrist 2.1694605367359046
lhand -26.214843734021937 23.931896636632352
lfingers 7.1250200000000214
lthumb 0.3312361500566938 53.89489097291509
rfemur -10.155562610258757 2.4241480471563523 25.853617556658687
rtibia 66.1338092904
rfoot 9.420634027390046 -1.793694127544008
rtoes 13.144706866866098
lfemur -21.36340191906855 -2.001316230047479 -17.826423233885276
ltibia 23.49496474413945
lfoot -5.8453581255627345 -0.11993576087799429
ltoes 3.3122315236347077
89
root 0 0 0 -4.133499516777901 -5.368437880110472 -0.27579704086072265
lowerback 9.55779070889894 1.5336708003176156 -0.2507716309176309
upperback -0.16624450661382406 2.0440276642450863 0.6867709341776913
thorax -5.531994774678973 1.0299888524217669 0.5850667864583489
lowerneck -16.456285148955974 -2.6120474145756094 -1.5231364211156204
upperneck 23.469693240113713 -3.459202277948139 0.6360930142069084
head 10.306658442511605 -1.6036147597005925 -0.008903623899186197
rclavicle -3.658885421061345E-15 9.87688331783581E-19
rhumerus -33.84690622597648 -22.084825491489102 -78.51347265908754
rradius 19.809120966967008
rwrist 7.020942128694542
rhand -17.91594932532795 25.891171326840904
rfingers 7.125020000000022
rthumb 8.346136302838186 -3.9050156839287666
lclavicle -3.91097440923106E-15 -9.058902330847883E-16
lhumerus -38.64225112982996 8.454623899310588 79.60412116502
lradius 21.27932660718186
lwrist 2.267962666602394
lhand -26.39107893824339 23.60831645137515
lfingers 7.125020000000021
lthumb 0.15803713312045176 53.575017446332616
rfemur -12.910960883592793 1.921604965403644 26.713421198164603
rtibia 70.7977015622426
rfoot 7.337949531238134 -3.0854004997812083
rtoes 15.637985450779931
lfemur -12.144194078828122 -2.5780238839606784 -23.024148106220743
ltibia 22.23008728401132
lfoot -8.271596636715964 -1.0420366082326518
ltoes 8.217854445471339
90
root 0 0 0 -4.58838464024195 -4.764316781506865 0.5420230090373579
lowerback 11.024267541131238 0.9159816608820974 -1.324926958603711
upperback 0.026218276778492394 1.1027615716836279 0.6644374860949533
thorax -6.189684649516053 0.5858469644384248 1.2933132898345479
lowerneck -17.055244485547902 -2.6420198976665925 -1.630869276180885
upperneck 19.7225645019069 -3.3521665482587775 0.3675634814018578
head 9.170233999136855 -1.6252317205167919 -0.03716599389376213
rclavicle -3.173136209707179E-15 1.160906235533706E-15
rhumerus -34.22063602600859 -22.544774104655524 -78.48566485475737
rradius 19.332460604874775
rwrist 7.478267794358275
rhand -17.827719821253282 25.876459744400904
rfingers 7.125020000000022
rthumb 8.43156076804054 -3.9061655411175735
lclavicle -3.0520108593726784E-15 5.559782281983686E-16
lhumerus -37.780297730886346 7.8917562638761805 79.59573179640951
lradius 21.679918878691137
lwrist 2.3536176250907785
lhand -26.477161198632785 23.601066088758078
lfingers 7.12502000000002
lthumb 0.07350212646815635 53.57128381145172
rfemur -15.376640386754215 1.1576764713075667 25.783965122779158
rtibia 69.4537529683054
rfoot 3.257756713031706 -3.535547066588393
rtoes 13.7878813014685
lfemur -1.9192260208390381 -3.391301730580644 -26.402016813207233
ltibia 20.807451141578852
lfoot -13.713419622212243 -0.03541001555029144
ltoes 3.221857843514261
91
root 0 0 0 -4.663023302120205 -3.775312940280151 1.2285494471519427
lowerback 11.396151544320794 0.2903362572384077 -2.2265194474199523
upperback 0.13281138496559536 0.1627826066044935 0.7192109343014244
thorax -6.30741019181054 0.14293102811881736 1.9926314573681614
lowerneck -17.716668996643712 -2.6018291209945152 -1.9265573260421274
upperneck 18.023714064559464 -3.1864717272159506 0.23121867594326773
head 8.67456043084934 -1.5950509302690963 -0.0027172684904184785
rclavicle -2.562459683893834E-15 8.452419457411434E-16
rhumerus -34.226557549598134 -22.63916540625792 -78.45414924627335
rradius 19.348569108696125
rwrist 7.519142414703272
rhand -17.840972769784855 25.815379761843737
rfingers 7.125020000000023
rthumb 8.420042973864877 -3.9793879166020503
lclavicle -2.5135220427481534E-15 5.649797075218145E-16
lhumerus -36.49501723122586 6.80486651709387 79.58573579044408
lradius 22.64140478118125
lwrist 2.732265493745608
lhand -26.59747635203842 23.820932204475138
lfingers 7.125020000000019
lthumb -0.04438887102787259 53.786823413116664
rfemur -23.78757035640771 0.030942840304791552 22.67106123776903
rtibia 64.53761784982656
rfoot -3.0662028760868205 -5.366678376870935
rtoes 8.184643880366451
lfemur 3.6505316821901816 -3.57146680654671 -27.987175439344917
ltibia 20.29603959324062
lfoot -17.174132227043952 0.7100730140395419
ltoes -1.1348920325256664
92
root 0 0 0 -3.5083106442134957 -2.2140723772519264 1.9061019047053764
lowerback 10.647135016217131 -0.5041455742867974 -3.2303772867210494
upperback 0.4365775458281641 -1.0090350693902315 0.9785144516222186
thorax -5.521529699606061 -0.40809851793524476 2.9971221796828145
lowerneck -17.052866986450034 -2.3791405470706977 -2.125091910838667
upperneck 18.670910255288533 -2.8083275472297435 0.22276644548907187
head 8.685648504059108 -1.434723469991342 0.07590786148707662
rclavicle -1.7708596718879648E-15 -3.9002456179800027E-16
rhumerus -34.36831909714942 -22.380762058328344 -78.58668118104767
rradius 19.64351072823127
rwrist 7.401190921866511
rhand -17.928304613680417 25.796708489709772
rfingers 7.125020000000024
rthumb 8.334722646280838 -4.016877317459603
lclavicle -1.493194549349453E-15 -8.727983662431046E-16
lhumerus -32.22508515245761 2.4459969248514275 79.39923148322121
lradius 26.843758199006643
lwrist 4.803291801442581
lhand -27.15836102317632 24.8142114422199
lfingers 7.125020000000009
lthumb -0.5857590142507023 54.78650951622555
rfemur -34.59225225955602 -0.21375470280666198 18.836925767558768
rtibia 55.037699870438125
rfoot -6.921477368743087 -8.883141269238449
rtoes 1.3165824440123788
lfemur 5.923394753626359 -3.1440775851437723 -28.90942762676835
ltibia 20.20278646111769
lfoot -18.65307543613158 0.8612703216035413
ltoes -1.417992656802081
